<?xml version="1.0" encoding="utf-8"?>
<!-- Generator: Adobe Illustrator 22.0.1, SVG Export Plug-In . SVG Version: 6.00 Build 0)  -->
<svg version="1.1" id="Layer_1" xmlns="http://www.w3.org/2000/svg" xmlns:xlink="http://www.w3.org/1999/xlink" x="0px" y="0px"
	 viewBox="0 0 512 512" style="enable-background:new 0 0 512 512;" xml:space="preserve">
<style type="text/css">
	.st0{fill:#E2E5E7;}
	.st1{fill:#B0B7BD;}
	.st2{fill:#CAD1D8;}
	.st3{fill:#2E8CFF;}
	.st4{fill:#FFFFFF;}
</style>
<path class="st0" d="M128,0c-17.6,0-32,14.4-32,32v448c0,17.6,14.4,32,32,32h320c17.6,0,32-14.4,32-32V128L352,0H128z"/>
<path class="st1" d="M384,128h96L352,0v96C352,113.6,366.4,128,384,128z"/>
<polygon class="st2" points="480,224 384,128 480,128 "/>
<path class="st3" d="M416,416c0,8.8-7.2,16-16,16H48c-8.8,0-16-7.2-16-16V256c0-8.8,7.2-16,16-16h352c8.8,0,16,7.2,16,16V416z"/>
<path class="st2" d="M400,432H96v16h304c8.8,0,16-7.2,16-16v-16C416,424.8,408.8,432,400,432z"/>
<g>
	<g>
		<path class="st4" d="M198.7,350c-2.4,15.2-12.6,29.6-35.6,29.6c-28.3,0-38.5-20.6-38.5-46.2c0-25.3,13-46.1,39.2-46.1
			c24.2,0,33.5,15.5,34.4,29.4h-17.9c-1.8-7.4-4.8-14.7-17.1-14.7c-14.9,0-19.8,15.2-19.8,31.3c0,17.1,4.7,31.7,20,31.7
			c12,0,15.6-8.3,17.3-15H198.7z"/>
		<path class="st4" d="M226,351.8c1.3,8.2,6.6,13.5,16.2,13.5c10.2,0,13.8-4.4,13.8-10.8c0-8.2-4.9-11.5-17.9-15.2
			c-20.8-5.8-27.9-13.2-27.9-26.2c0-16.6,13.3-25.7,30.4-25.7c21.5,0,30.6,11.2,31.7,25.6h-18c-1.1-6.6-4.3-11.7-13.9-11.7
			c-8,0-12,3.7-12,10c0,6.7,4.5,8.6,17.2,12.3c22.9,6.7,28.9,15.9,28.9,28.7c0,14.6-9.7,27.1-33.2,27.1c-19.6,0-32.3-9.9-33.4-27.7
			H226z"/>
		<path class="st4" d="M301.8,351.8c1.3,8.2,6.6,13.5,16.2,13.5c10.2,0,13.8-4.4,13.8-10.8c0-8.2-4.9-11.5-17.9-15.2
			c-20.8-5.8-27.9-13.2-27.9-26.2c0-16.6,13.3-25.7,30.4-25.7c21.5,0,30.6,11.2,31.7,25.6h-18c-1.1-6.6-4.3-11.7-13.9-11.7
			c-8,0-12,3.7-12,10c0,6.7,4.5,8.6,17.2,12.3c22.9,6.7,28.9,15.9,28.9,28.7c0,14.6-9.7,27.1-33.2,27.1c-19.6,0-32.3-9.9-33.4-27.7
			H301.8z"/>
	</g>
</g>
</svg>
