<?xml version="1.0" encoding="utf-8"?>
<!-- Generator: Adobe Illustrator 22.0.1, SVG Export Plug-In . SVG Version: 6.00 Build 0)  -->
<svg version="1.1" id="Vrstva_1" xmlns="http://www.w3.org/2000/svg" xmlns:xlink="http://www.w3.org/1999/xlink" x="0px" y="0px"
	 viewBox="0 0 390 512" style="enable-background:new 0 0 390 512;" xml:space="preserve">
<style type="text/css">
	.st0{fill:#2E8CFF;}
</style>
<path class="st0" d="M1.6,190.1v-82.3c0-5.6,6.4-8.9,10.9-5.5c60.4,46.2,304.4,44.4,366.2-1c4.5-3.3,10.8-0.1,10.8,5.5v83
	c0,1.7-0.7,3.4-1.8,4.7C328.2,257.4,50,249.2,3.2,194.5C2.1,193.3,1.6,191.7,1.6,190.1z M1.1,324.5v-82.3c0-5.6,6.4-8.8,10.9-5.4
	c62.2,47.2,306.7,42.9,366.3-0.3c4.5-3.2,10.7,0,10.7,5.5v82.8c0,1.6-0.6,3.2-1.7,4.5c-48,53.9-319.1,62.6-384.2,0.1
	C1.8,328.1,1.1,326.3,1.1,324.5z M0,462.9v-81.3c0-5.6,6.3-8.8,10.8-5.5c57.1,41.4,301.7,46.7,366.2-1.4c4.5-3.4,10.9-0.2,10.9,5.4
	v83.1c0,1.8-0.7,3.5-1.9,4.7c-55.3,57-317.3,60.7-383.8,0C0.8,466.6,0,464.8,0,462.9z M389.1,51.5c0-39.5-162.1-64.3-291-44.6
	s-128.9,69.4,0,89.1S389.1,91,389.1,51.5z"/>
</svg>
