<?xml version="1.0" encoding="utf-8"?>
<!-- Generator: Adobe Illustrator 22.0.1, SVG Export Plug-In . SVG Version: 6.00 Build 0)  -->
<svg version="1.1" id="_x31__x2C_5" xmlns="http://www.w3.org/2000/svg" xmlns:xlink="http://www.w3.org/1999/xlink" x="0px"
	 y="0px" viewBox="0 0 512 512" style="enable-background:new 0 0 512 512;" xml:space="preserve">
<style type="text/css">
	.st0{fill:#2E8CFF;}
</style>
<path class="st0" d="M90.7,234.7c-8.8,0-16-7.2-16-16V101.3c0-8.8,7.2-16,16-16s16,7.2,16,16v117.3
	C106.7,227.5,99.5,234.7,90.7,234.7z"/>
<path class="st0" d="M421.3,234.7c-8.8,0-16-7.2-16-16V101.3c0-8.8,7.2-16,16-16s16,7.2,16,16v117.3
	C437.3,227.5,430.2,234.7,421.3,234.7z"/>
<path class="st0" d="M197.3,234.7H176c-20.6,0-37.3-16.7-37.3-37.3v-74.7c0-20.6,16.7-37.3,37.3-37.3h21.3
	c20.6,0,37.3,16.7,37.3,37.3v74.7C234.7,217.9,217.9,234.7,197.3,234.7z M176,117.3c-2.9,0-5.3,2.4-5.3,5.3v74.7
	c0,2.9,2.4,5.3,5.3,5.3h21.3c2.9,0,5.3-2.4,5.3-5.3v-74.7c0-2.9-2.4-5.3-5.3-5.3H176z"/>
<path class="st0" d="M336,234.7h-21.3c-20.6,0-37.3-16.7-37.3-37.3v-74.7c0-20.6,16.7-37.3,37.3-37.3H336
	c20.6,0,37.3,16.7,37.3,37.3v74.7C373.3,217.9,356.6,234.7,336,234.7z M314.7,117.3c-2.9,0-5.3,2.4-5.3,5.3v74.7
	c0,2.9,2.4,5.3,5.3,5.3H336c2.9,0,5.3-2.4,5.3-5.3v-74.7c0-2.9-2.4-5.3-5.3-5.3H314.7z"/>
<path class="st0" d="M421.3,426.7c-8.8,0-16-7.2-16-16V293.3c0-8.8,7.2-16,16-16s16,7.2,16,16v117.3
	C437.3,419.5,430.2,426.7,421.3,426.7z"/>
<path class="st0" d="M138.7,426.7h-21.3c-20.6,0-37.3-16.7-37.3-37.3v-74.7c0-20.6,16.7-37.3,37.3-37.3h21.3
	c20.6,0,37.3,16.7,37.3,37.3v74.7C176,409.9,159.3,426.7,138.7,426.7z M117.3,309.3c-2.9,0-5.3,2.4-5.3,5.3v74.7
	c0,2.9,2.4,5.3,5.3,5.3h21.3c2.9,0,5.3-2.4,5.3-5.3v-74.7c0-2.9-2.4-5.3-5.3-5.3H117.3z"/>
<path class="st0" d="M272,426.7h-21.3c-20.6,0-37.3-16.7-37.3-37.3v-74.7c0-20.6,16.7-37.3,37.3-37.3H272
	c20.6,0,37.3,16.7,37.3,37.3v74.7C309.3,409.9,292.6,426.7,272,426.7z M250.7,309.3c-2.9,0-5.3,2.4-5.3,5.3v74.7
	c0,2.9,2.4,5.3,5.3,5.3H272c2.9,0,5.3-2.4,5.3-5.3v-74.7c0-2.9-2.4-5.3-5.3-5.3H250.7z"/>
<path class="st0" d="M357.3,426.7c-8.8,0-16-7.2-16-16V293.3c0-8.8,7.2-16,16-16s16,7.2,16,16v117.3
	C373.3,419.5,366.2,426.7,357.3,426.7z"/>
<path class="st0" d="M453.3,490.7H58.7C26.3,490.7,0,464.4,0,432V80c0-32.4,26.3-58.7,58.7-58.7h394.7c32.4,0,58.7,26.3,58.7,58.7
	v352C512,464.4,485.7,490.7,453.3,490.7z M58.7,53.3C44,53.3,32,65.3,32,80v352c0,14.7,12,26.7,26.7,26.7h394.7
	c14.7,0,26.7-12,26.7-26.7V80c0-14.7-12-26.7-26.7-26.7H58.7z"/>
</svg>
