<?xml version="1.0" encoding="utf-8"?>
<!-- Generator: Adobe Illustrator 22.0.1, SVG Export Plug-In . SVG Version: 6.00 Build 0)  -->
<svg version="1.1" id="Layer_1" xmlns="http://www.w3.org/2000/svg" xmlns:xlink="http://www.w3.org/1999/xlink" x="0px" y="0px"
	 viewBox="0 0 512 512" style="enable-background:new 0 0 512 512;" xml:space="preserve">
<style type="text/css">
	.st0{fill:#E2E5E7;}
	.st1{fill:#B0B7BD;}
	.st2{fill:#CAD1D8;}
	.st3{fill:#E74100;}
	.st4{fill:#FFFFFF;}
</style>
<path class="st0" d="M128,0c-17.6,0-32,14.4-32,32v448c0,17.6,14.4,32,32,32h320c17.6,0,32-14.4,32-32V128L352,0H128z"/>
<path class="st1" d="M384,128h96L352,0v96C352,113.6,366.4,128,384,128z"/>
<polygon class="st2" points="480,224 384,128 480,128 "/>
<path class="st3" d="M416,416c0,8.8-7.2,16-16,16H48c-8.8,0-16-7.2-16-16V256c0-8.8,7.2-16,16-16h352c8.8,0,16,7.2,16,16V416z"/>
<path class="st2" d="M400,432H96v16h304c8.8,0,16-7.2,16-16v-16C416,424.8,408.8,432,400,432z"/>
<g>
	<g>
		<path class="st4" d="M132.6,299c4.8-0.9,11.1-1.5,19.1-1.5c9.7,0,16.9,2.3,21.5,6.4c4.2,3.7,6.8,9.2,6.8,16.1c0,7-2.1,12.5-6,16.4
			c-5.3,5.6-13.8,8.4-23.5,8.4c-3,0-5.7-0.1-8-0.7v30.8h-9.9V299z M142.5,336c2.2,0.6,5,0.9,8.2,0.9c12,0,19.3-5.9,19.3-16.4
			c0-10.2-7.3-15.1-18.1-15.1c-4.4,0-7.6,0.4-9.4,0.8V336z"/>
		<path class="st4" d="M193.3,299.2c6.1-1,13.3-1.7,21.1-1.7c14.2,0,24.4,3.4,31.1,9.7c6.9,6.2,10.9,15.1,10.9,27.5
			c0,12.6-3.9,22.8-11.1,29.9c-7.3,7.2-19.1,11.1-34,11.1c-7.1,0-13-0.3-18.1-0.9V299.2z M203.2,367.1c2.5,0.4,6.2,0.5,10,0.5
			c21.3,0.1,32.7-11.8,32.7-32.6c0.1-18.1-10.1-29.6-31.1-29.6c-5.1,0-9,0.5-11.6,1V367.1z"/>
		<path class="st4" d="M269.2,298.1h41.4v8.3h-31.4V332h29v8.2h-29v34.8h-10V298.1z"/>
	</g>
</g>
</svg>
