<?xml version="1.0" encoding="utf-8"?>
<!-- Generator: Adobe Illustrator 22.0.1, SVG Export Plug-In . SVG Version: 6.00 Build 0)  -->
<svg version="1.1" id="Capa_1" xmlns="http://www.w3.org/2000/svg" xmlns:xlink="http://www.w3.org/1999/xlink" x="0px" y="0px"
	 viewBox="0 0 512 512" style="enable-background:new 0 0 512 512;" xml:space="preserve">
<style type="text/css">
	.st0{fill:#2E8CFF;}
	.st1{fill:#F5F0EB;}
	.st2{fill:#6C6C6C;}
	.st3{fill:#404040;}
	.st4{fill:#262626;}
</style>
<g>
	<path class="st0" d="M511.9,136.2c0,0-94.9,310.7-94.9,375.8H95.1c0-65.1-94.9-375.8-94.9-375.8S43,93.8,256,93.8h0.3
		C469.1,93.9,511.9,136.2,511.9,136.2L511.9,136.2z"/>
	<path class="st0" d="M511.9,136.2c0,0-94.9,310.7-94.9,375.8H256.3V93.8C469.1,93.9,511.9,136.2,511.9,136.2L511.9,136.2z"/>
	<path class="st1" d="M223,409.7c-4.8,0-9.6-1.2-14-3.5c-9.9-5.2-16-15.4-16-26.5V260.8c0-11.2,6.2-21.4,16.1-26.6
		c9.9-5.2,21.8-4.5,31,1.9l86.5,59.8c8.1,5.6,13,14.9,12.9,24.7c0,9.9-4.9,19.1-13.1,24.7l-86.5,59.1
		C234.8,407.9,228.9,409.7,223,409.7L223,409.7z"/>
	<path class="st2" d="M80.1,121.2h-65c-8.3,0-15,6.7-15,15V467c0,5.3,0.9,10.3,2.6,15c6.2,17.5,22.9,30,42.4,30h35
		c8.3,0,15-6.7,15-15V136.2C95.1,127.9,88.4,121.2,80.1,121.2L80.1,121.2z"/>
	<g>
		<path class="st3" d="M80.1,121.2h-65c-8.3,0-15,6.7-15,15v72h94.9v-72C95.1,127.9,88.4,121.2,80.1,121.2z"/>
		<path class="st3" d="M0.1,280.1h94.9v72H0.1L0.1,280.1z"/>
		<path class="st3" d="M0.1,424v43c0,24.8,20.1,45,45,45h50v-88L0.1,424z"/>
		<path class="st3" d="M416.9,136.2V497c0,8.3,6.7,15,15,15h35c19.5,0,36.2-12.5,42.4-30c1.7-4.7,2.6-9.7,2.6-15V136.2
			c0-8.3-6.7-15-15-15h-65C423.6,121.2,416.9,127.9,416.9,136.2L416.9,136.2z"/>
	</g>
	<path class="st4" d="M431.9,121.2h65c8.3,0,15,6.7,15,15v72h-94.9v-72C416.9,127.9,423.6,121.2,431.9,121.2z"/>
	<path class="st4" d="M416.9,280.1h94.9v72h-94.9V280.1z"/>
	<path class="st4" d="M511.9,424v43c0,24.8-20.1,45-45,45h-50v-88L511.9,424z"/>
	<path class="st0" d="M511.9,136.2v-34c0-24.8-20.2-45-45-45H183.4c-4.8,0-9.3-2.3-12.1-6.1l-22.7-32.4c0-0.1-0.1-0.1-0.1-0.2
		C139.9,6.9,126.3,0,111.9,0c0,0-0.1,0-0.1,0L45,0.2C20.3,0.3,0.1,20.4,0.1,45.2v91H511.9z"/>
	<path class="st0" d="M466.9,57.2H256v79h255.9v-34C511.9,77.4,491.7,57.2,466.9,57.2z"/>
</g>
</svg>
