<?xml version="1.0" encoding="utf-8"?>
<!-- Generator: Adobe Illustrator 22.0.1, SVG Export Plug-In . SVG Version: 6.00 Build 0)  -->
<svg version="1.1" id="Vrstva_1" xmlns="http://www.w3.org/2000/svg" xmlns:xlink="http://www.w3.org/1999/xlink" x="0px" y="0px"
	 viewBox="0 0 768 1024" style="enable-background:new 0 0 768 1024;" xml:space="preserve">
<style type="text/css">
	.st0{fill:#2E8CFF;}
</style>
<path class="st0" d="M418,256H158c-16.6,0-30,13.4-30,30v4c0,16.6,13.4,30,30,30h260c16.6,0,30-13.4,30-30v-4
	C448,269.4,434.6,256,418,256z M563.6,64H30C13.4,64,0,77.4,0,94v836c0,16.6,13.4,30,30,30h708c16.6,0,30-13.4,30-30V268.4
	c0-8-3.2-15.6-8.8-21.2L584.8,72.8C579.2,67.2,571.5,64,563.6,64z M674,896H94c-16.6,0-30-13.4-30-30V158c0-16.6,13.4-30,30-30
	h405.6c8,0,15.6,3.2,21.2,8.8l174.4,174.4c5.6,5.6,8.8,13.3,8.8,21.2V866C704,882.6,690.6,896,674,896z M158,768h452
	c16.6,0,30-13.4,30-30v-4c0-16.6-13.4-30-30-30H158c-16.6,0-30,13.4-30,30v4C128,754.6,141.4,768,158,768z M158,640h452
	c16.6,0,30-13.4,30-30v-4c0-16.6-13.4-30-30-30H158c-16.6,0-30,13.4-30,30v4C128,626.6,141.4,640,158,640z M158,512h452
	c16.6,0,30-13.4,30-30v-4c0-16.6-13.4-30-30-30H158c-16.6,0-30,13.4-30,30v4C128,498.6,141.4,512,158,512z"/>
</svg>
