<?xml version="1.0" encoding="utf-8"?>
<!-- Generator: Adobe Illustrator 22.0.1, SVG Export Plug-In . SVG Version: 6.00 Build 0)  -->
<svg version="1.1" id="Vrstva_1" xmlns="http://www.w3.org/2000/svg" xmlns:xlink="http://www.w3.org/1999/xlink" x="0px" y="0px"
	 viewBox="0 0 768 1024" style="enable-background:new 0 0 768 1024;" xml:space="preserve">
<style type="text/css">
	.st0{fill:#2E8CFF;}
</style>
<path class="st0" d="M271.2,400.8L144.8,527.2c-9.3,9.3-9.3,24.3,0,33.6l126.4,126.4c9.3,9.3,24.3,9.3,33.6,0l30.4-30.4
	c9.3-9.3,9.3-24.3,0-33.6l-62.4-62.4c-9.3-9.3-9.3-24.3,0-33.6l62.4-62.4c9.3-9.3,9.3-24.3,0-33.6l-30.4-30.4
	C295.5,391.5,280.5,391.5,271.2,400.8z M432.8,464.8l62.4,62.4c9.3,9.3,9.3,24.3,0,33.6l-62.4,62.4c-9.3,9.3-9.3,24.3,0,33.6
	l30.4,30.4c9.3,9.3,24.3,9.3,33.6,0l126.4-126.4c9.3-9.3,9.3-24.3,0-33.6L496.8,400.8c-9.3-9.3-24.3-9.3-33.6,0l-30.4,30.4
	C423.5,440.5,423.5,455.5,432.8,464.8z M566.2,64H23.8C10.6,64,0,74.6,0,87.8v848.5C0,949.4,10.6,960,23.8,960h720.5
	c13.1,0,23.8-10.6,23.8-23.8V265.8c0-6.3-2.5-12.3-7-16.8L583,71C578.5,66.5,572.5,64,566.2,64z M680.2,896H87.8
	C74.6,896,64,885.4,64,872.2V151.8c0-13.1,10.6-23.8,23.8-23.8h414.4c6.3,0,12.3,2.5,16.8,7L697,313c4.5,4.5,7,10.5,7,16.8v542.4
	C704,885.4,693.4,896,680.2,896z"/>
</svg>
