<?xml version="1.0" encoding="utf-8"?>
<!-- Generator: Adobe Illustrator 22.0.1, SVG Export Plug-In . SVG Version: 6.00 Build 0)  -->
<svg version="1.1" id="Capa_1" xmlns="http://www.w3.org/2000/svg" xmlns:xlink="http://www.w3.org/1999/xlink" x="0px" y="0px"
	 viewBox="0 0 512 512" style="enable-background:new 0 0 512 512;" xml:space="preserve">
<style type="text/css">
	.st0{fill:#2E8CFF;}
</style>
<g>
	<g>
		<path class="st0" d="M390,491.6l-120-315c-4.4-11.6-23.6-11.6-28,0l-120,315c-2.3,6-0.5,12.8,4.5,16.9c5,4.1,12,4.6,17.5,1.1
			l112-70l112,70c2.4,1.5,5.2,2.3,8,2.3c3.4,0,6.8-1.2,9.5-3.4C390.5,504.5,392.3,497.7,390,491.6z"/>
	</g>
</g>
<g>
	<g>
		<path class="st0" d="M497,210h-20.2c-13.1-64.1-53.6-118.4-108.9-150h56.9c6.2,17.4,22.7,30,42.2,30c24.8,0,45-20.2,45-45
			S491.8,0,467,0c-19.5,0-36,12.6-42.2,30H301V15c0-8.3-6.7-15-15-15h-60c-8.3,0-15,6.7-15,15v15H87.2C81,12.6,64.5,0,45,0
			C20.2,0,0,20.2,0,45s20.2,45,45,45c19.5,0,36-12.6,42.2-30h57.9C89.8,91.6,48.4,145.9,35.2,210H15c-8.3,0-15,6.7-15,15v60
			c0,8.3,6.7,15,15,15h60c8.3,0,15-6.7,15-15v-60c0-8.3-6.7-15-15-15h-9.1c17-71.1,74-127.1,145.1-144.1V75c0,8.3,6.7,15,15,15h60
			c8.3,0,15-6.7,15-15v-9.1c71.1,17,128.1,73,145.1,144.1H437c-8.3,0-15,6.7-15,15v60c0,8.3,6.7,15,15,15h60c8.3,0,15-6.7,15-15v-60
			C512,216.7,505.3,210,497,210z"/>
	</g>
</g>
</svg>
