<?xml version="1.0" encoding="utf-8"?>
<!-- Generator: Adobe Illustrator 22.0.1, SVG Export Plug-In . SVG Version: 6.00 Build 0)  -->
<svg version="1.1" id="Vrstva_1" xmlns="http://www.w3.org/2000/svg" xmlns:xlink="http://www.w3.org/1999/xlink" x="0px" y="0px"
	 viewBox="0 0 512 512" style="enable-background:new 0 0 512 512;" xml:space="preserve">
<style type="text/css">
	.st0{fill:#2E8CFF;}
</style>
<path class="st0" d="M475.4,36.6H46.1C20.6,36.6,0,57.2,0,82.7v346.5c0,25.5,20.7,46.2,46.2,46.2h419.7c25.5,0,46.2-20.7,46.2-46.2
	V73.1C512,52.9,495.6,36.6,475.4,36.6z M79.9,285.8l59.5-59.5c3.7-3.7,3.7-9.8,0-13.6l-59.5-59.5c-3.7-3.7-3.7-9.8,0-13.6l23-23
	c3.7-3.7,9.8-3.7,13.6,0l96.1,96.1c3.8,3.8,3.7,9.8,0,13.6l-96.1,96c-3.7,3.7-9.8,3.7-13.6,0l-23-22.9
	C76.1,295.6,76.1,289.6,79.9,285.8z M356.1,329.1H229c-5.3,0-9.6-4.3-9.6-9.6v-17.4c0-5.3,4.3-9.6,9.6-9.6h127.1
	c5.3,0,9.6,4.3,9.6,9.6v17.4C365.7,324.8,361.4,329.1,356.1,329.1z"/>
</svg>
